<svg width="742" height="529" viewBox="0 0 742 529" fill="none" xmlns="http://www.w3.org/2000/svg">
<g filter="url(#filter0_d_2_14)">
<path d="M20 26C20 20.4772 24.4772 16 30 16H510C515.523 16 520 20.4772 520 26V156C520 161.523 515.523 166 510 166H30C24.4771 166 20 161.523 20 156V26Z" fill="#151D3B"/>
</g>
<path d="M187.921 85.3125H180.455C180.319 84.3466 180.04 83.4886 179.62 82.7386C179.2 81.9773 178.66 81.3295 178.001 80.7955C177.342 80.2614 176.58 79.8523 175.717 79.5682C174.864 79.2841 173.938 79.142 172.938 79.142C171.131 79.142 169.558 79.5909 168.217 80.4886C166.876 81.375 165.836 82.6705 165.097 84.375C164.359 86.0682 163.989 88.125 163.989 90.5455C163.989 93.0341 164.359 95.125 165.097 96.8182C165.847 98.5114 166.893 99.7898 168.234 100.653C169.575 101.517 171.126 101.949 172.887 101.949C173.876 101.949 174.79 101.818 175.631 101.557C176.484 101.295 177.239 100.915 177.898 100.415C178.558 99.9034 179.103 99.2841 179.535 98.5568C179.978 97.8295 180.285 97 180.455 96.0682L187.921 96.1023C187.728 97.7045 187.245 99.25 186.472 100.739C185.711 102.216 184.683 103.54 183.387 104.71C182.103 105.869 180.569 106.79 178.785 107.472C177.012 108.142 175.006 108.477 172.768 108.477C169.654 108.477 166.87 107.773 164.415 106.364C161.972 104.955 160.04 102.915 158.62 100.244C157.211 97.5739 156.506 94.3409 156.506 90.5455C156.506 86.7386 157.222 83.5 158.654 80.8295C160.086 78.1591 162.029 76.125 164.484 74.7273C166.938 73.3182 169.7 72.6136 172.768 72.6136C174.79 72.6136 176.665 72.8977 178.393 73.4659C180.131 74.0341 181.671 74.8636 183.012 75.9545C184.353 77.0341 185.444 78.358 186.285 79.9261C187.137 81.4943 187.683 83.2898 187.921 85.3125ZM209.867 96.8523V81.8182H217.129V108H210.157V103.244H209.884C209.293 104.778 208.31 106.011 206.935 106.943C205.572 107.875 203.907 108.341 201.941 108.341C200.191 108.341 198.651 107.943 197.322 107.148C195.992 106.352 194.952 105.222 194.202 103.756C193.464 102.29 193.089 100.534 193.077 98.4886V81.8182H200.339V97.1932C200.35 98.7386 200.765 99.9602 201.583 100.858C202.401 101.756 203.498 102.205 204.873 102.205C205.748 102.205 206.566 102.006 207.327 101.608C208.089 101.199 208.702 100.597 209.168 99.8011C209.646 99.0057 209.879 98.0227 209.867 96.8523ZM244.721 89.2841L238.073 89.6932C237.96 89.125 237.715 88.6136 237.34 88.1591C236.965 87.6932 236.471 87.3239 235.857 87.0511C235.255 86.767 234.533 86.625 233.692 86.625C232.567 86.625 231.619 86.8636 230.846 87.3409C230.073 87.8068 229.687 88.4318 229.687 89.2159C229.687 89.8409 229.937 90.3693 230.437 90.8011C230.937 91.233 231.795 91.5795 233.011 91.8409L237.749 92.7955C240.295 93.3182 242.192 94.1591 243.442 95.3182C244.692 96.4773 245.317 98 245.317 99.8864C245.317 101.602 244.812 103.108 243.8 104.403C242.8 105.699 241.425 106.71 239.675 107.438C237.937 108.153 235.931 108.511 233.658 108.511C230.192 108.511 227.431 107.79 225.374 106.347C223.329 104.892 222.13 102.915 221.778 100.415L228.92 100.04C229.136 101.097 229.658 101.903 230.488 102.46C231.317 103.006 232.38 103.278 233.675 103.278C234.948 103.278 235.971 103.034 236.744 102.545C237.528 102.045 237.925 101.403 237.937 100.619C237.925 99.9602 237.647 99.4205 237.102 99C236.556 98.5682 235.715 98.2386 234.579 98.0114L230.045 97.108C227.488 96.5966 225.585 95.7102 224.335 94.4489C223.096 93.1875 222.477 91.5795 222.477 89.625C222.477 87.9432 222.931 86.4943 223.84 85.2784C224.761 84.0625 226.05 83.125 227.71 82.4659C229.38 81.8068 231.335 81.4773 233.573 81.4773C236.88 81.4773 239.482 82.1761 241.38 83.5739C243.289 84.9716 244.403 86.875 244.721 89.2841ZM263.816 81.8182V87.2727H248.049V81.8182H263.816ZM251.629 75.5455H258.89V99.9545C258.89 100.625 258.992 101.148 259.197 101.523C259.401 101.886 259.685 102.142 260.049 102.29C260.424 102.437 260.856 102.511 261.344 102.511C261.685 102.511 262.026 102.483 262.367 102.426C262.708 102.358 262.969 102.307 263.151 102.273L264.293 107.676C263.93 107.79 263.418 107.92 262.759 108.068C262.1 108.227 261.299 108.324 260.356 108.358C258.606 108.426 257.072 108.193 255.754 107.659C254.447 107.125 253.43 106.295 252.702 105.17C251.975 104.045 251.617 102.625 251.629 100.909V75.5455ZM280.094 108.511C277.447 108.511 275.157 107.949 273.225 106.824C271.305 105.687 269.822 104.108 268.776 102.085C267.731 100.051 267.208 97.6932 267.208 95.0114C267.208 92.3068 267.731 89.9432 268.776 87.9205C269.822 85.8864 271.305 84.3068 273.225 83.1818C275.157 82.0455 277.447 81.4773 280.094 81.4773C282.742 81.4773 285.026 82.0455 286.947 83.1818C288.879 84.3068 290.367 85.8864 291.413 87.9205C292.458 89.9432 292.981 92.3068 292.981 95.0114C292.981 97.6932 292.458 100.051 291.413 102.085C290.367 104.108 288.879 105.687 286.947 106.824C285.026 107.949 282.742 108.511 280.094 108.511ZM280.129 102.886C281.333 102.886 282.339 102.545 283.146 101.864C283.952 101.17 284.56 100.227 284.969 99.0341C285.39 97.8409 285.6 96.483 285.6 94.9602C285.6 93.4375 285.39 92.0795 284.969 90.8864C284.56 89.6932 283.952 88.75 283.146 88.0568C282.339 87.3636 281.333 87.017 280.129 87.017C278.913 87.017 277.89 87.3636 277.06 88.0568C276.242 88.75 275.623 89.6932 275.202 90.8864C274.793 92.0795 274.589 93.4375 274.589 94.9602C274.589 96.483 274.793 97.8409 275.202 99.0341C275.623 100.227 276.242 101.17 277.06 101.864C277.89 102.545 278.913 102.886 280.129 102.886ZM297.702 108V81.8182H304.623V86.4375H304.93C305.475 84.9034 306.384 83.6932 307.657 82.8068C308.93 81.9205 310.452 81.4773 312.225 81.4773C314.021 81.4773 315.549 81.9261 316.81 82.8239C318.072 83.7102 318.913 84.9148 319.333 86.4375H319.606C320.14 84.9375 321.106 83.7386 322.504 82.8409C323.913 81.9318 325.577 81.4773 327.498 81.4773C329.941 81.4773 331.924 82.2557 333.447 83.8125C334.981 85.358 335.748 87.5511 335.748 90.392V108H328.504V91.8239C328.504 90.3693 328.117 89.2784 327.344 88.5511C326.572 87.8239 325.606 87.4602 324.447 87.4602C323.129 87.4602 322.1 87.8807 321.362 88.7216C320.623 89.5511 320.254 90.6477 320.254 92.0114V108H313.214V91.6705C313.214 90.3864 312.844 89.3636 312.106 88.6023C311.379 87.8409 310.418 87.4602 309.225 87.4602C308.418 87.4602 307.691 87.6648 307.043 88.0739C306.407 88.4716 305.901 89.0341 305.526 89.7614C305.151 90.4773 304.964 91.3182 304.964 92.2841V108H297.702ZM353.415 108.511C350.722 108.511 348.404 107.966 346.461 106.875C344.529 105.773 343.04 104.216 341.995 102.205C340.95 100.182 340.427 97.7898 340.427 95.0284C340.427 92.3352 340.95 89.9716 341.995 87.9375C343.04 85.9034 344.512 84.3182 346.41 83.1818C348.319 82.0455 350.558 81.4773 353.126 81.4773C354.853 81.4773 356.461 81.7557 357.95 82.3125C359.45 82.858 360.756 83.6818 361.87 84.7841C362.995 85.8864 363.87 87.2727 364.495 88.9432C365.12 90.6023 365.433 92.5455 365.433 94.7727V96.767H343.325V92.267H358.597C358.597 91.2216 358.37 90.2955 357.915 89.4886C357.461 88.6818 356.83 88.0511 356.023 87.5966C355.228 87.1307 354.302 86.8977 353.245 86.8977C352.143 86.8977 351.165 87.1534 350.313 87.6648C349.472 88.1648 348.813 88.8409 348.336 89.6932C347.859 90.5341 347.614 91.4716 347.603 92.5057V96.7841C347.603 98.0795 347.842 99.1989 348.319 100.142C348.808 101.085 349.495 101.812 350.381 102.324C351.268 102.835 352.319 103.091 353.535 103.091C354.342 103.091 355.08 102.977 355.751 102.75C356.421 102.523 356.995 102.182 357.472 101.727C357.95 101.273 358.313 100.716 358.563 100.057L365.279 100.5C364.938 102.114 364.239 103.523 363.183 104.727C362.137 105.92 360.785 106.852 359.126 107.523C357.478 108.182 355.575 108.511 353.415 108.511ZM370.171 108V81.8182H377.211V86.3864H377.484C377.961 84.7614 378.762 83.5341 379.887 82.7045C381.012 81.8636 382.308 81.4432 383.773 81.4432C384.137 81.4432 384.529 81.4659 384.95 81.5114C385.37 81.5568 385.739 81.6193 386.058 81.6989V88.142C385.717 88.0398 385.245 87.9489 384.643 87.8693C384.04 87.7898 383.489 87.75 382.989 87.75C381.921 87.75 380.967 87.983 380.126 88.4489C379.296 88.9034 378.637 89.5398 378.148 90.358C377.671 91.1761 377.433 92.1193 377.433 93.1875V108H370.171Z" fill="white"/>
<g filter="url(#filter1_d_2_14)">
<path d="M222 195C222 189.477 226.477 185 232 185H712C717.523 185 722 189.477 722 195V325C722 330.523 717.523 335 712 335H232C226.477 335 222 330.523 222 325V195Z" fill="#D82121"/>
</g>
<g filter="url(#filter2_d_2_14)">
<path d="M22.5 364.5C22.5 358.977 26.9772 354.5 32.5 354.5H512.5C518.023 354.5 522.5 358.977 522.5 364.5V494.5C522.5 500.023 518.023 504.5 512.5 504.5H32.5C26.9771 504.5 22.5 500.023 22.5 494.5V364.5Z" fill="#151D3B"/>
</g>
<defs>
<filter id="filter0_d_2_14" x="0" y="0" width="540" height="190" filterUnits="userSpaceOnUse" color-interpolation-filters="sRGB">
<feFlood flood-opacity="0" result="BackgroundImageFix"/>
<feColorMatrix in="SourceAlpha" type="matrix" values="0 0 0 0 0 0 0 0 0 0 0 0 0 0 0 0 0 0 127 0" result="hardAlpha"/>
<feOffset dy="4"/>
<feGaussianBlur stdDeviation="10"/>
<feComposite in2="hardAlpha" operator="out"/>
<feColorMatrix type="matrix" values="0 0 0 0 0 0 0 0 0 0 0 0 0 0 0 0 0 0 0.25 0"/>
<feBlend mode="normal" in2="BackgroundImageFix" result="effect1_dropShadow_2_14"/>
<feBlend mode="normal" in="SourceGraphic" in2="effect1_dropShadow_2_14" result="shape"/>
</filter>
<filter id="filter1_d_2_14" x="202" y="169" width="540" height="190" filterUnits="userSpaceOnUse" color-interpolation-filters="sRGB">
<feFlood flood-opacity="0" result="BackgroundImageFix"/>
<feColorMatrix in="SourceAlpha" type="matrix" values="0 0 0 0 0 0 0 0 0 0 0 0 0 0 0 0 0 0 127 0" result="hardAlpha"/>
<feOffset dy="4"/>
<feGaussianBlur stdDeviation="10"/>
<feComposite in2="hardAlpha" operator="out"/>
<feColorMatrix type="matrix" values="0 0 0 0 0 0 0 0 0 0 0 0 0 0 0 0 0 0 0.25 0"/>
<feBlend mode="normal" in2="BackgroundImageFix" result="effect1_dropShadow_2_14"/>
<feBlend mode="normal" in="SourceGraphic" in2="effect1_dropShadow_2_14" result="shape"/>
</filter>
<filter id="filter2_d_2_14" x="2.5" y="338.5" width="540" height="190" filterUnits="userSpaceOnUse" color-interpolation-filters="sRGB">
<feFlood flood-opacity="0" result="BackgroundImageFix"/>
<feColorMatrix in="SourceAlpha" type="matrix" values="0 0 0 0 0 0 0 0 0 0 0 0 0 0 0 0 0 0 127 0" result="hardAlpha"/>
<feOffset dy="4"/>
<feGaussianBlur stdDeviation="10"/>
<feComposite in2="hardAlpha" operator="out"/>
<feColorMatrix type="matrix" values="0 0 0 0 0 0 0 0 0 0 0 0 0 0 0 0 0 0 0.25 0"/>
<feBlend mode="normal" in2="BackgroundImageFix" result="effect1_dropShadow_2_14"/>
<feBlend mode="normal" in="SourceGraphic" in2="effect1_dropShadow_2_14" result="shape"/>
</filter>
</defs>
</svg>
